<svg xmlns="http://www.w3.org/2000/svg" width="171" height="29" fill="none"><g clip-path="url(#a)"><path fill="#fff" fill-rule="evenodd" d="m0 22.35 1.34-2.8c.99.73 2.75 1.57 4.1 1.57 1.67 0 2.32-.84 2.32-1.73.03-1.05-.8-1.45-2.56-2.03-2.96-.93-4.63-2-4.63-4.84 0-2.59 1.9-4.43 5.37-4.43 1.8 0 3.44.58 4.75 1.54l-1.34 2.55a6.9 6.9 0 0 0-3.56-1.23c-1.28 0-2.06.52-2.06 1.54 0 .83.57 1.39 2.45 1.97 3.2.99 4.78 2.22 4.78 4.8 0 2.93-2.3 4.72-5.5 4.72A9.67 9.67 0 0 1 0 22.35ZM21.1 10.9c-2.8 0-4.73 2.2-4.73 5.12 0 2.87 1.92 5.07 4.72 5.07 2.78 0 4.7-2.26 4.7-5.14 0-2.84-1.92-5.04-4.7-5.04Zm4.75 9.66A5.88 5.88 0 0 1 20.31 24C16.24 24 13 20.94 13 15.98 13 11.06 16.24 8 20.3 8a5.88 5.88 0 0 1 5.55 3.44v-3.2H29v15.48h-3.15v-3.16ZM44.6 24h-3.2v-9.56c0-1.98-1.06-3.49-3.21-3.49-2.34 0-3.98 2.02-3.98 4.6V24H31V8.28h3.2v2.8A5.2 5.2 0 0 1 39 8a5.3 5.3 0 0 1 4.88 2.99A6 6 0 0 1 49.17 8C52.52 8 55 10.48 55 14.48V24h-3.2v-9.56c0-1.98-1.07-3.49-3.22-3.49-2.34 0-3.98 2.02-3.98 4.6V24ZM56.3 4H60l-2.16 6H55l1.3-6ZM59 22.36l1.35-2.83c.99.75 2.76 1.59 4.1 1.59 1.68 0 2.34-.84 2.34-1.74.03-1.05-.8-1.46-2.57-2.05-2.97-.93-4.65-2.01-4.65-4.86 0-2.61 1.92-4.47 5.4-4.47 1.8 0 3.44.59 4.76 1.55l-1.35 2.57a6.9 6.9 0 0 0-3.57-1.24c-1.28 0-2.06.53-2.06 1.55 0 .84.57 1.4 2.45 1.99 3.21 1 4.8 2.23 4.8 4.84C70 22.2 67.7 24 64.49 24A9.68 9.68 0 0 1 59 22.36ZM77 16c0-4.93 3.43-8 8.2-8 2.25 0 4.24.71 5.77 2.23l-1.9 2.33a5.42 5.42 0 0 0-3.84-1.65c-2.87 0-4.9 1.71-4.9 5.06 0 3.35 2.03 5.12 4.9 5.12 1.25 0 2.65-.5 3.87-1.74l1.9 2.3A8 8 0 0 1 85.2 24c-4.74 0-8.2-3.07-8.2-8ZM97.1 24c-3.28.12-5.1-1.56-5.1-5.32V2.62L95.2 2v16.68c0 1.5.82 2.18 1.97 2.18H98v3.04c-.29.06-.6.1-.9.1ZM100 17.26V8h3.07v9.51c0 2.08 1.28 3.5 3.43 3.5 2.15 0 3.43-1.42 3.43-3.5V8H113v9.26c0 4.31-2.6 6.74-6.5 6.74s-6.5-2.43-6.5-6.74ZM123.9 21.08c2.8 0 4.73-2.2 4.73-5.12 0-2.88-1.92-5.09-4.72-5.09-2.78 0-4.7 2.27-4.7 5.16 0 2.85 1.92 5.05 4.7 5.05Zm.8 2.92a5.87 5.87 0 0 1-5.55-3.44v3.2H116V2.61l3.15-.62v9.4a5.87 5.87 0 0 1 5.54-3.44c4.07 0 7.31 3.07 7.31 8.03 0 4.94-3.24 8.01-7.3 8.01Z" clip-rule="evenodd"/><mask id="b" width="16" height="29" x="137" y="0" maskUnits="userSpaceOnUse" style="mask-type:alpha"><path fill="#fff" fill-rule="evenodd" d="M137.08.13h15.79V29h-15.79V.13Z" clip-rule="evenodd"/></mask><g mask="url(#b)"><path fill="#fff" fill-rule="evenodd" d="m152.38 2.34-2.11-2.2-12.73 13.26a1.7 1.7 0 0 0 0 2.34L150.27 29l2.11-2.2c.65-.68.65-1.77 0-2.44l-9.4-9.8 9.4-9.8c.65-.66.65-1.75 0-2.42Z" clip-rule="evenodd"/></g><mask id="c" width="16" height="29" x="155" y="0" maskUnits="userSpaceOnUse" style="mask-type:alpha"><path fill="#fff" fill-rule="evenodd" d="M155.12.13H171V29h-15.88V.13Z" clip-rule="evenodd"/></mask><g mask="url(#c)"><path fill="#fff" fill-rule="evenodd" d="M170.56 13.46 157.76.13l-2.11 2.22a1.76 1.76 0 0 0 0 2.4l9.4 9.81-9.49 9.9c-.59.62-.59 1.62 0 2.24l2.21 2.3 12.8-13.34c.57-.6.57-1.59 0-2.2Z" clip-rule="evenodd"/></g></g><defs><clipPath id="a"><path fill="#fff" d="M0 0h171v29H0z"/></clipPath></defs></svg>